<?xml version="1.0" encoding="utf-8"?>
<!-- Generator: Adobe Illustrator 27.7.0, SVG Export Plug-In . SVG Version: 6.00 Build 0)  -->
<svg version="1.1" id="Capa_1" xmlns="http://www.w3.org/2000/svg" xmlns:xlink="http://www.w3.org/1999/xlink" x="0px" y="0px"
	 viewBox="0 0 1920 1080" style="enable-background:new 0 0 1920 1080;" xml:space="preserve">
<style type="text/css">
	.st0{opacity:0.19;}
	.st1{clip-path:url(#SVGID_00000051362333552566876400000016326441383986364040_);}
	.st2{fill:#6F275D;}
</style>
<g class="st0">
	<g>
		<defs>
			<rect id="SVGID_1_" x="401" y="268" width="1096" height="558"/>
		</defs>
		<clipPath id="SVGID_00000091696473371007736510000011395809284462585761_">
			<use xlink:href="#SVGID_1_"  style="overflow:visible;"/>
		</clipPath>
		<g style="clip-path:url(#SVGID_00000091696473371007736510000011395809284462585761_);">
			<g>
				<path class="st2" d="M955.1,468.9c-22.6-62.3-71.5-93.2-130.5-101.8c-65.2-9.5-122.1,45-138.1,110.8
					c-18.4,75.6,27.2,140,81.6,179.8C839.6,710,907.8,769.5,982,817.5c7.4,4.8,14.1-7.8,6.7-12.5c-58.2-37.7-111.2-84.1-166.7-126.2
					c-54-41-118.8-76.7-125.7-156.9c-6.2-71,46-135.6,110-140.8c57.4-4.7,115.2,34,136.1,91.7C945.3,481.3,958.2,477.6,955.1,468.9z
					"/>
				<path class="st2" d="M954.4,478.4c34.4-69.3,62.8-157.2,138.2-184.1c29.5-10.5,62.2-5.8,88.6,11.5
					c31.3,20.6,41.5,58.1,42.5,95.7c4.3,168.5-123,310.6-239.1,402.3c-6.9,5.4-0.3,18,6.7,12.5c65.6-51.8,125.5-112.5,172.7-184.7
					c46.6-71.2,85.8-169.6,71.1-259.2c-11.8-71.4-73.2-108.4-136.2-95.1c-85.2,18-119.7,120.4-156,193.5
					C938.8,479.3,950.3,486.6,954.4,478.4z"/>
				<path class="st2" d="M939.7,477c6.3,9.9,8.7,22.4,13.5,33.3c5.6,12.7,12,25,18.5,37.1c12.1,22.6,26.1,43.9,40,65.2
					c22.9,35,47.1,73,85,89.3c8,3.4,11.4-10.6,3.5-14c-37.9-16.3-61.3-58.8-84.1-93.3c-13.1-20-25.5-40.4-36.8-61.7
					c-10.7-20.1-16.1-44.5-28.1-63.2C946.3,462.1,934.8,469.3,939.7,477z"/>
				<path class="st2" d="M973.7,422.5c0.3,46.8,32.5,84.2,54.1,121.7c26.4,45.9,58.6,85.7,97.5,119.5c6.6,5.8,16.1-4.4,9.4-10.3
					c-35.9-31.2-66.8-67.6-91.6-109.8c-21.2-36.1-55.8-76.2-56.1-121.1C987,413.1,973.6,413.1,973.7,422.5z"/>
				<path class="st2" d="M1000.6,371.8c26,95.5,87.1,185.8,169.3,231.4c7.6,4.2,14.4-8.3,6.7-12.5
					c-79.2-43.9-138.1-130.6-163.2-222.7C1010.9,358.9,998.1,362.8,1000.6,371.8z"/>
				<path class="st2" d="M1036.9,319c6.1,100.6,92.9,173.6,151.6,241.2c5.9,6.8,15.3-3.5,9.4-10.3c-55.8-64.3-141.8-135.4-147.7-231
					C1049.6,309.7,1036.3,309.6,1036.9,319z"/>
				<path class="st2" d="M1146.6,285.5c-40.5,26.5-62.4,86.3-69.6,135.1c-1.3,9.2,11.5,13.1,12.8,3.9
					c6.6-45.1,25.9-101.9,63.4-126.4C1160.6,293.2,1154,280.6,1146.6,285.5z"/>
				<path class="st2" d="M1176.5,298.2c-23.9,14.1-38.1,45.6-48.9,71.4c-11.1,26.5-22.7,59.7-17.3,89.4c1.7,9.2,14.5,5.3,12.8-3.9
					c-4.6-25.5,6.9-55.3,16-78.2c9.3-23.4,22.7-53.5,44.2-66.2C1190.8,306.3,1184.1,293.7,1176.5,298.2z"/>
				<path class="st2" d="M1211.5,317.4c-18.6-7.6-61.8,158.7-66.4,179.4c-2,9.1,10.8,13,12.8,3.9c6.7-30,16.8-59.4,26-88.5
					c5.7-17.9,11.6-35.8,17.8-53.5c2.4-6.9,4.9-13.7,7.7-20.4c0.8-2,1.8-4.1,2.7-6.1c2.7-5.6,1,1.4-4.2-0.8
					C1216.1,334.7,1219.5,320.7,1211.5,317.4z"/>
				<path class="st2" d="M1218.3,377c-4.5,24.3-15.7,45.4-25.9,67.3c-10.7,23-15.5,49-24.9,72.6c-3.4,8.5,8.1,15.9,11.5,7.3
					c9.5-23.8,15.5-48.9,24.9-72.6c9.5-24,22.4-44.7,27.3-70.8C1232.8,371.7,1220,367.8,1218.3,377z"/>
				<path class="st2" d="M827.3,381.7c14.4,41.9-2.2,90-13,131c-6.3,23.9-14.4,47.1-25,69.1c-8.8,18.3-20.8,34.3-28.1,53.5
					c-3.3,8.7,9.6,12.4,12.8,3.9c8.7-22.9,23.8-42.7,33.8-65.1c9.3-20.9,15.6-43.3,21.5-65.6c10.8-41,25.3-88.6,10.8-130.5
					C837.1,369.2,824.2,373,827.3,381.7z"/>
				<path class="st2" d="M869.6,396.7c11.3,44.8-2.8,97.3-15.9,140.2c-13.3,43.5-35.5,83.3-51.4,125.6c-3.3,8.7,9.6,12.4,12.8,3.9
					c18-47.7,42.3-92.1,56.1-141.7c11.5-41.1,21.9-89.5,11.2-131.9C880.2,383.8,867.4,387.7,869.6,396.7z"/>
				<path class="st2" d="M916.8,430.2c1,94.2-45.1,176.4-82.6,257.9c-3.9,8.3,7.6,15.7,11.5,7.3c38.6-83.8,85.4-168.3,84.4-265.2
					C930,420.8,916.7,420.8,916.8,430.2z"/>
				<path class="st2" d="M950.7,507.1c5.6,32.8-16,70.1-25.6,100.3C912.4,647,898,689.7,872.6,722c-5.6,7.1,3.8,17.4,9.4,10.3
					c25.8-32.8,40.5-74.7,53.9-114.9c11.6-34.9,34.1-76,27.7-114.2C962,494,949.1,497.9,950.7,507.1z"/>
				<path class="st2" d="M693.9,456.7c10.2,50.7,44.5,108.2,90.7,126.3c8.1,3.2,11.6-10.9,3.5-14c-41.6-16.4-72.2-70.9-81.4-116.2
					C704.8,443.6,692,447.5,693.9,456.7z"/>
				<path class="st2" d="M722.3,418c-1.7,53.6,43.1,96.6,83.1,119.3c7.6,4.3,14.3-8.2,6.7-12.6c-35.8-20.3-78.1-58.5-76.5-106.8
					C735.9,408.6,722.6,408.6,722.3,418z"/>
				<path class="st2" d="M748.7,391.3c10.1,42.3,35.4,72.8,67.9,97c7.1,5.3,13.8-7.3,6.7-12.5c-29.7-22.1-52.5-49.7-61.8-88.3
					C759.4,378.4,746.5,382.2,748.7,391.3z"/>
				<path class="st2" d="M911.3,668.3c34.9,35,71.8,67.5,111.1,96.5c7.1,5.3,13.8-7.3,6.7-12.5c-38.4-28.3-74.3-60-108.4-94.2
					C914.4,651.7,904.9,661.9,911.3,668.3z"/>
				<path class="st2" d="M922.6,632.6c27.5,20.9,51.1,47.2,77.7,69.5c15.3,12.8,35.6,34.2,54.6,40.8c2.6,0.9,6.3-0.5,7.5-3.3
					c0.1-0.2,0.2-0.4,0.3-0.6c3.6-8.4-7.8-15.8-11.5-7.3c-0.1,0.2-0.2,0.4-0.3,0.6c2.5-1.1,5-2.2,7.5-3.3
					c-17.5-6.2-37.2-27.7-51.4-39.4c-26.8-22-50.1-48.5-77.7-69.5C922.2,614.7,915.6,627.3,922.6,632.6z"/>
				<path class="st2" d="M941.3,598.6c26,20,49.4,46.6,69.3,73.6c15.4,20.9,31.2,43.1,55.7,51.1c8.2,2.7,11.7-11.4,3.5-14
					c-27.1-8.8-43.5-39.7-60.8-62c-17.6-22.6-38.8-44.2-61-61.3C941,580.6,934.3,593.2,941.3,598.6z"/>
				<path class="st2" d="M932,700.7c-4.4,19.2-14.9,39.5-25.5,55.5c-5,7.6,6.5,14.9,11.5,7.3c11.2-16.9,22.2-38.6,26.8-59
					C946.9,695.5,934.1,691.6,932,700.7z"/>
				<path class="st2" d="M963.8,722.1c-8,14.5-16.2,28.8-23.7,43.6c-4.1,8.2,7.3,15.5,11.5,7.3c7.5-14.8,15.7-29.1,23.7-43.6
					C979.8,721.4,968.2,714.1,963.8,722.1z"/>
				<path class="st2" d="M990.6,747c-2.5,7.2-7.7,13.9-11.6,20.2c-5.4,8.8-11,17.5-15.1,27.1c-3.7,8.4,7.8,15.8,11.5,7.3
					c7.7-17.8,21.6-32.4,28.1-50.8C1006.5,742.1,993.6,738.4,990.6,747z"/>
				<path class="st2" d="M655.1,794.2c-42.7-50.3-95.9-91.9-120.7-157.1c-27.8-72.9-23.4-172.7,19.5-237.2
					c5.1-7.6-6.5-14.8-11.5-7.3c-44,66.1-46.1,158.5-25.3,234.8c20.6,75.4,81.9,122.1,128.6,177.2
					C651.5,811.4,660.9,801.1,655.1,794.2z"/>
				<path class="st2" d="M552.3,396.2c-1.2-28.4,8.2-58.4,20.8-82.9c7.3-14.3,18.7-29.2,34.7-30.6c10.3-0.9,25.4,5.1,22.5,18.5
					c-5,22.7-30.4,42.8-45.6,57.2c-13.4,12.6-29.3,23.7-41.1,38.1c-5.7,6.9,3.7,17.3,9.4,10.3c18.3-22.2,43-38.6,62.6-59.5
					c13.4-14.4,38.4-41.9,24.9-64.2c-16.2-26.8-51.6-13.1-67.2,5.3c-22.4,26.5-35.7,72.1-34.1,107.8
					C539.4,405.5,552.7,405.5,552.3,396.2z"/>
				<path class="st2" d="M517.4,456.1c-1.3-32.4-29.9-99.7-68.5-87c-17.6,5.8-10.5,31.8-5.1,44.1c12.3,28.3,41.6,35.6,63.5,51.9
					c7.1,5.3,13.8-7.3,6.7-12.5c-13.5-10-28.8-16.2-42.4-26.1c-8.7-6.3-14.7-15.6-18.5-26c-1.7-4.7-5.3-17.2,2.1-18.1
					c27.6-3.5,48,50.4,48.9,73.7C504.5,465.4,517.8,465.5,517.4,456.1z"/>
				<path class="st2" d="M520.7,466.1c17.9-2.6,35-9.1,52.7-12.8c12-2.5,29.1-4.6,37.1,8c5.4,8.5,4.2,18.1-4.8,21.5
					c-23.5,8.9-69.4-3.1-89.1-19.3c-6.9-5.6-13.5,7-6.7,12.5c15.1,12.4,37.9,16.9,55.9,20.5c17.3,3.4,42.7,7.4,56.3-8.1
					c12.8-14.6,0.4-42.2-14.8-48c-28.6-10.9-58.3,7.1-86.5,11.2C512.3,452.8,512.2,467.3,520.7,466.1z"/>
				<path class="st2" d="M518,551.7c-19.1-18.8-38-40.2-64.1-46.2c-17.5-4-42.9,2.8-50.8,22c-7.2,17.6,6.6,33.4,19.6,41.3
					c24.3,14.8,50.8,3.9,75-5c8.1-3,4.6-17-3.5-14c-15.4,5.7-30.6,12.1-47.1,12.1c-11.4,0-38.4-12.6-31.4-29.7
					c7.6-18.6,37.5-13.6,50.2-7.2c16.4,8.3,29.5,23.9,42.8,36.9C514.9,568.3,524.4,558,518,551.7z"/>
				<path class="st2" d="M506.1,559.3c18.8,19.3,47.3,35.4,73,39.1c14.7,2.1,40.7-4.9,34.9-27c-5-19-31.5-28-46.5-32.6
					c-20.6-6.3-46.4-8.3-63.9,7.5c-6.6,6,2.8,16.2,9.4,10.3c21.2-19.1,67.6-3.8,85.5,14.8c4.2,4.4,3.4,7.3-1.3,10.5
					c-8.3,5.8-19.7,1.8-28.3-0.9c-18.7-5.8-39.2-17.3-53.4-32C509.2,542.6,499.8,552.9,506.1,559.3z"/>
				<path class="st2" d="M530,650.7c-18-6.3-39.1-11.2-58-8.2c-19.7,3.1-41.9,22.8-33.1,46.6c8.1,22,36.2,26.9,54.6,20.8
					c20.1-6.7,42.6-28.7,52.9-48.5c4.3-8.2-7.2-15.5-11.5-7.3c-7.3,13.9-20.4,25.5-32.3,34.4c-14.5,10.9-43.7,16.3-52.2-6.5
					c-4.1-11.2,10.1-21.3,18.2-24.1c7.7-2.7,16.6-1.6,24.4-0.9c11.2,1.1,22.6,4,33.3,7.7C534.6,667.6,538.1,653.5,530,650.7z"/>
				<path class="st2" d="M550.4,665.6c13.3-17.2,29.8-34.2,50.4-39.5c11.2-2.9,40,10.7,21.9,22.9c-20.6,13.9-55.5,20.4-79.5,17.8
					c-8.5-0.9-8.5,13.6,0,14.5c17.5,1.9,36.7-2.7,53.6-7c14.5-3.6,37.4-9.4,44.7-25.7c8.4-18.9-16.4-34.4-29.8-37.1
					c-27.4-5.6-54.7,23.1-70.7,43.7C535.4,662.4,544.8,672.7,550.4,665.6z"/>
				<path class="st2" d="M608.8,751.3c6.7-14.3,6.1-31.5,9.1-46.9c1.8-9.2,5-18.5,12-24.3c5.3-4.4,18.8-8.9,25.4-5.7
					c10.4,4.9-38.4,60-45.7,64.3c-7.6,4.4-0.8,17,6.7,12.5c15.7-9.2,28.4-26.4,39-41.7c6.6-9.6,21.8-33.2,10.2-44.8
					c-13.3-13.2-39.5-2.4-49.8,10.1c-16,19.5-8.3,47.5-18.4,69.2C593.4,752.3,604.9,759.6,608.8,751.3z"/>
				<path class="st2" d="M605.5,743c-25.8,0.5-53,7-76.5,18.6c-18.8,9.2-36.2,33.1-18,53.8c36,40.9,104.5-47,113.4-82.2
					c2.3-9-10.6-12.9-12.8-3.9c-6.1,24.2-62.3,101.3-89,78.2c-33.6-29.1,68.7-49.7,82.9-49.9C614.1,757.4,614.1,742.9,605.5,743z"/>
				<path class="st2" d="M1252.6,804.5c46.1-54.4,101.8-98.5,126.5-170.3c25.9-75.3,20.6-175.8-23.2-241.7c-5-7.5-16.5-0.3-11.5,7.3
					c43,64.7,44.6,156.6,21.8,230.5c-21.2,68.8-79.7,112.7-123,163.9C1237.4,801.1,1246.8,811.4,1252.6,804.5z"/>
				<path class="st2" d="M1359.3,396.2c1.5-34.8-11-77.2-31.3-104.1c-16.5-21.9-48.4-35.3-69-10.5c-31.7,38.3,68.8,103.7,86.5,125.2
					c5.7,7,15.1-3.3,9.4-10.3c-26.5-32.2-67-51.2-85.5-91.5c-6.3-13.7,4.7-18.9,15.3-21.6c16.8-4.4,29.9,12.2,38.2,25.6
					c14.8,24.1,24.5,58.1,23.2,87.2C1345.6,405.5,1358.9,405.5,1359.3,396.2z"/>
				<path class="st2" d="M1394.2,456.1c1.1-28,19.3-65.7,45-73.4c9.7-2.9,8.5,7.7,7,14.4c-2.2,9.6-7.9,18.3-14.4,25
					c-13.3,13.7-32.6,19.4-47.6,30.4c-7.1,5.2-0.4,17.8,6.7,12.5c21.4-15.9,47.4-22.9,61.7-48.2c7.5-13.3,14.3-37.7-1.7-47.1
					c-16-9.3-37.8,8.7-46.5,22.1c-11.7,17.9-22.6,41.8-23.5,64.2C1380.6,465.5,1393.9,465.4,1394.2,456.1z"/>
				<path class="st2" d="M1377.6,451.5c-27.8-4-54.5-19.5-83-12.5c-17.5,4.3-30.2,30.8-19.4,47.9c10.9,17.1,37.9,12.6,53.6,10.2
					c19-2.9,43.9-8.2,59.6-21.2c6.8-5.6,0.2-18.2-6.7-12.5c-20.7,17-61.6,25.2-86.5,20c-8.8-1.8-11.8-7.1-9.6-16.4
					c3.8-16.1,19.6-15.9,31.7-14.9c20.5,1.7,39.9,11,60.3,13.9C1386.1,467.3,1386,452.8,1377.6,451.5z"/>
				<path class="st2" d="M1389.8,562c22.2-21.8,59.5-63.3,90.6-33.2c14.7,14.3-13.5,29-22.3,31.9c-17.1,5.6-37.8-5-53.8-10.9
					c-8.1-3-11.6,11-3.5,14c22.9,8.5,47.6,18.9,71.1,7c15-7.6,29-22,24.1-41.5c-5.3-21.1-33.4-26-49.7-24
					c-26.5,3.3-47.2,28-65.9,46.4C1374,558,1383.4,568.3,1389.8,562z"/>
				<path class="st2" d="M1382.9,549c-13.6,14-31.9,23.6-49.3,30.5c-9.1,3.6-19.4,6.7-29,4.2c-7.1-1.9-9.4-6.7-4.7-12.3
					c16.4-19.8,65.3-33,85.5-14.8c6.6,5.9,16-4.3,9.4-10.3c-16.9-15.3-40.3-13.2-60.5-8.4c-15.7,3.8-44.8,13.8-49.9,33.5
					c-5.2,20,16.9,28.5,31.2,27.5c26.6-1.9,57.5-20,76.7-39.6C1398.5,552.9,1389.1,542.6,1382.9,549z"/>
				<path class="st2" d="M1371.9,664.7c10.8-3.8,22.1-6.3,33.3-7.7c14-1.8,47.3,0.3,42.6,24.9c-2,10.6-16.2,14.9-24.1,16
					c-10.6,1.4-19.5-3.5-28.1-9.4c-11.9-8.2-25.2-20.9-32.3-34.4c-4.2-8.1-15.7-0.8-11.5,7.3c10.1,19.4,30.6,38.7,49.5,47
					c18.8,8.3,49.4,4.1,58.1-19.3c8.2-22.2-11-41.6-29.6-46.1c-19.5-4.7-42.9,1.2-61.5,7.7C1360.2,653.5,1363.7,667.6,1371.9,664.7z
					"/>
				<path class="st2" d="M1357.4,655.3c-16.8-21.6-41.1-46-68.9-44c-14.1,1-37.8,17-32.2,35.6c5.1,16.9,29.1,22.9,42.6,26.7
					c17.5,4.9,38.1,9.7,56.3,7.7c8.5-0.9,8.5-15.5,0-14.5c-24.4,2.7-56-4.6-77.6-16.7c-18.5-10.3,1.3-23.6,14.5-24.5
					c21.7-1.6,43.1,23.5,55.9,40C1353.5,672.7,1362.9,662.4,1357.4,655.3z"/>
				<path class="st2" d="M1301.1,743.9c-9.9-21.3-3.4-47.3-17.4-67.7c-8.8-12.9-37-25.4-49.9-12.5c-12,11.9,0.7,32.6,7.7,43.4
					c10.4,16.2,24.3,34.5,40.5,44c7.6,4.5,14.3-8.1,6.7-12.5c-11.2-6.6-20.3-18.2-28.5-28.6c-4.5-5.7-21.8-26.5-17.7-35.4
					c1.8-3.9,16.8,1.3,19.3,2c10.6,3,15.2,14.3,17.9,24.7c4.2,16.4,2.6,34.6,9.8,50C1293.5,759.6,1304.9,752.3,1301.1,743.9z"/>
				<path class="st2" d="M1292.8,757.6c17.3,0.3,112.6,16.3,82.9,49.9c-23.4,26.5-83.6-57-89-78.2c-2.3-9-15.1-5.2-12.8,3.9
					c8.9,35.2,77.4,123.1,113.3,82.2c18.6-21.1,0.3-43.9-18-53.8c-22.7-12.3-51.2-18.1-76.5-18.5
					C1284.2,742.9,1284.2,757.4,1292.8,757.6z"/>
			</g>
		</g>
	</g>
</g>
</svg>
