<?xml version="1.0" encoding="utf-8"?>
<!-- Generator: Adobe Illustrator 27.7.0, SVG Export Plug-In . SVG Version: 6.00 Build 0)  -->
<svg version="1.1" id="Capa_1" xmlns="http://www.w3.org/2000/svg" xmlns:xlink="http://www.w3.org/1999/xlink" x="0px" y="0px"
	 viewBox="0 0 1920 1080" style="enable-background:new 0 0 1920 1080;" xml:space="preserve">
<style type="text/css">
	.st0{fill:#FCE3E3;}
	.st1{opacity:0.19;}
	.st2{clip-path:url(#SVGID_00000102503901751802691070000009571739215854377617_);}
	.st3{fill:#6F275D;}
</style>
<g>
	<rect x="0.5" y="0.5" class="st0" width="1919" height="1079"/>
	<path d="M1919,1v1078H1V1H1919 M1920,0H0v1080h1920V0L1920,0z"/>
</g>
<g class="st1">
	<g>
		<g>
			<defs>
				<rect id="SVGID_1_" x="209" y="156" width="1475" height="754"/>
			</defs>
			<clipPath id="SVGID_00000152256075770987024080000007475457545324797600_">
				<use xlink:href="#SVGID_1_"  style="overflow:visible;"/>
			</clipPath>
			<g style="clip-path:url(#SVGID_00000152256075770987024080000007475457545324797600_);">
				<g>
					<path class="st3" d="M954.7,427.5c-30.4-84.2-96.2-125.9-175.6-137.6c-87.7-12.8-164.3,60.8-185.9,149.7
						c-24.8,102.2,36.6,189.2,109.8,243c96.2,70.7,188,151.1,287.9,215.9c10,6.5,19-10.5,9-16.9C921.6,830.7,850.3,768,775.6,711.1
						c-72.7-55.4-159.9-103.6-169.2-212c-8.3-95.9,61.9-183.2,148-190.3c77.2-6.4,155,45.9,183.2,123.9
						C941.5,444.2,958.9,439.2,954.7,427.5z"/>
					<path class="st3" d="M953.8,440.3c46.3-93.6,84.5-212.4,186-248.8c39.7-14.2,83.7-7.8,119.2,15.5
						c42.1,27.8,55.9,78.5,57.2,129.3c5.8,227.7-165.5,419.7-321.8,543.6c-9.3,7.3-0.4,24.3,9,16.9c88.3-70,168.9-152,232.4-249.6
						c62.7-96.2,115.5-229.2,95.7-350.2c-15.9-96.5-98.5-146.5-183.3-128.5C1033.6,192.9,987.1,331.3,938.3,430
						C932.8,441.5,948.2,451.4,953.8,440.3z"/>
					<path class="st3" d="M934,438.4c8.5,13.4,11.7,30.3,18.2,45c7.5,17.2,16.1,33.8,24.9,50.1c16.3,30.5,35.1,59.3,53.8,88.1
						c30.8,47.3,63.4,98.6,114.4,120.7c10.8,4.6,15.3-14.3,4.7-18.9c-51-22-82.5-79.5-113.2-126.1c-17.6-27-34.3-54.6-49.5-83.4
						c-14.4-27.2-21.7-60.1-37.8-85.4C942.9,418.3,927.4,428,934,438.4z"/>
					<path class="st3" d="M979.7,364.8c0.4,63.2,43.7,113.8,72.8,164.4c35.5,62,78.9,115.8,131.2,161.5c8.9,7.8,21.7-5.9,12.7-13.9
						c-48.3-42.2-89.9-91.3-123.3-148.4c-28.5-48.8-75.1-103-75.5-163.6C997.6,352.1,979.6,352.1,979.7,364.8z"/>
					<path class="st3" d="M1015.9,296.3c35,129,117.2,251.1,227.8,312.7c10.2,5.7,19.4-11.2,9-16.9
						c-106.6-59.3-185.9-176.5-219.6-300.9C1029.8,278.8,1012.6,284.1,1015.9,296.3z"/>
					<path class="st3" d="M1064.8,224.9c8.2,135.9,125,234.6,204,325.9c7.9,9.2,20.6-4.7,12.7-13.9
						c-75.1-86.9-190.8-183-198.8-312.1C1081.9,212.3,1064,212.2,1064.8,224.9z"/>
					<path class="st3" d="M1212.4,179.6c-54.5,35.8-84,116.6-93.7,182.6c-1.7,12.4,15.5,17.7,17.2,5.3
						c8.9-60.9,34.9-137.7,85.3-170.8C1231.3,190.1,1222.4,173,1212.4,179.6z"/>
					<path class="st3" d="M1252.7,196.8c-32.2,19.1-51.3,61.6-65.8,96.5c-14.9,35.8-30.5,80.7-23.3,120.8
						c2.3,12.4,19.5,7.2,17.2-5.3c-6.2-34.5,9.3-74.7,21.5-105.7c12.5-31.6,30.5-72.3,59.5-89.5
						C1271.9,207.8,1262.9,190.7,1252.7,196.8z"/>
					<path class="st3" d="M1299.8,222.8c-25-10.3-83.2,214.4-89.4,242.4c-2.7,12.3,14.5,17.6,17.2,5.3c9-40.5,22.6-80.3,35-119.6
						c7.7-24.2,15.6-48.4,24-72.3c3.2-9.3,6.6-18.5,10.4-27.6c1.1-2.7,2.4-5.5,3.6-8.2c3.6-7.6,1.3,1.9-5.7-1.1
						C1306,246.1,1310.5,227.2,1299.8,222.8z"/>
					<path class="st3" d="M1308.9,303.3c-6.1,32.8-21.1,61.3-34.9,90.9c-14.4,31.1-20.9,66.2-33.5,98.1
						c-4.6,11.5,10.9,21.5,15.5,9.9c12.8-32.2,20.9-66.1,33.5-98.1c12.8-32.4,30.1-60.4,36.7-95.7
						C1328.4,296.1,1311.2,290.9,1308.9,303.3z"/>
					<path class="st3" d="M782.7,309.6c19.4,56.6-3,121.6-17.5,177c-8.5,32.3-19.4,63.6-33.6,93.4c-11.8,24.7-28,46.3-37.8,72.3
						c-4.4,11.8,12.9,16.8,17.2,5.3c11.7-30.9,32-57.7,45.5-88c12.5-28.2,21-58.5,28.9-88.6c14.5-55.4,34-119.7,14.5-176.3
						C795.9,292.7,778.5,297.9,782.7,309.6z"/>
					<path class="st3" d="M839.6,329.9c15.2,60.5-3.8,131.5-21.4,189.4c-17.9,58.8-47.8,112.6-69.2,169.7
						c-4.4,11.8,12.9,16.8,17.2,5.3c24.2-64.5,56.9-124.5,75.5-191.5c15.5-55.5,29.5-120.9,15.1-178.2
						C853.9,312.5,836.7,317.7,839.6,329.9z"/>
					<path class="st3" d="M903.2,375.2c1.3,127.3-60.7,238.4-111.2,348.5c-5.2,11.2,10.2,21.2,15.5,9.9
						c51.9-113.2,114.9-227.4,113.6-358.4C920.9,362.5,903,362.5,903.2,375.2z"/>
					<path class="st3" d="M948.8,479.1c7.5,44.3-21.5,94.7-34.5,135.5c-17.1,53.5-36.5,111.2-70.7,154.9
						c-7.5,9.6,5.1,23.5,12.7,13.9c34.7-44.3,54.5-100.9,72.5-155.3c15.6-47.2,45.9-102.7,37.3-154.3
						C964,461.4,946.6,466.7,948.8,479.1z"/>
					<path class="st3" d="M603.2,411c13.7,68.5,59.9,146.2,122.1,170.7c10.9,4.3,15.6-14.7,4.7-18.9c-56-22.2-97.2-95.8-109.5-157
						C617.9,393.3,600.6,398.6,603.2,411z"/>
					<path class="st3" d="M641.4,358.7c-2.3,72.4,58,130.5,111.8,161.2c10.2,5.8,19.2-11.1,9-17c-48.2-27.4-105.1-79-103-144.3
						C659.7,346,641.8,346,641.4,358.7z"/>
					<path class="st3" d="M676.9,322.6c13.6,57.2,47.6,98.4,91.4,131.1c9.6,7.2,18.6-9.9,9-16.9c-40-29.9-70.7-67.2-83.2-119.3
						C691.3,305.2,674,310.3,676.9,322.6z"/>
					<path class="st3" d="M895.8,696.9c47,47.3,96.6,91.2,149.5,130.4c9.6,7.2,18.6-9.9,9-16.9c-51.7-38.2-100-81.1-145.9-127.3
						C899.9,674.5,887.2,688.3,895.8,696.9z"/>
					<path class="st3" d="M911,648.7c37,28.2,68.8,63.8,104.6,93.9c20.6,17.3,47.9,46.2,73.5,55.1c3.5,1.2,8.5-0.7,10.1-4.5
						c0.1-0.3,0.3-0.5,0.4-0.8c4.8-11.4-10.5-21.3-15.5-9.9c-0.1,0.3-0.3,0.5-0.4,0.8c3.4-1.5,6.7-3,10.1-4.5
						c-23.6-8.4-50.1-37.4-69.2-53.2c-36.1-29.7-67.4-65.5-104.6-93.9C910.4,624.5,901.6,641.5,911,648.7z"/>
					<path class="st3" d="M936.1,602.7c35,27,66.5,63,93.3,99.5c20.7,28.2,42,58.2,75,69c11,3.6,15.7-15.4,4.7-18.9
						c-36.5-11.9-58.5-53.6-81.8-83.8c-23.7-30.5-52.2-59.7-82.1-82.8C935.7,578.4,926.7,595.4,936.1,602.7z"/>
					<path class="st3" d="M923.6,740.7c-5.9,25.9-20.1,53.4-34.3,75c-6.7,10.3,8.7,20.1,15.5,9.9c15.1-22.8,29.9-52.2,36.1-79.7
						C943.7,733.7,926.4,728.4,923.6,740.7z"/>
					<path class="st3" d="M966.4,769.6c-10.8,19.6-21.8,38.9-31.9,58.9c-5.5,11.1,9.8,20.9,15.5,9.9c10.1-20,21.1-39.3,31.9-58.9
						C988,768.7,972.3,758.8,966.4,769.6z"/>
					<path class="st3" d="M1002.5,803.3c-3.4,9.7-10.4,18.8-15.6,27.3c-7.3,11.9-14.8,23.6-20.3,36.6c-5,11.4,10.5,21.3,15.5,9.9
						c10.4-24.1,29.1-43.8,37.8-68.6C1023.9,796.6,1006.5,791.6,1002.5,803.3z"/>
					<path class="st3" d="M551,867c-57.5-68-129.1-124.2-162.4-212.3c-37.4-98.5-31.5-233.4,26.2-320.5c6.9-10.3-8.7-20-15.5-9.9
						c-59.2,89.3-62,214.2-34,317.3c27.7,101.9,110.2,165,173.1,239.4C546.1,890.3,558.8,876.4,551,867z"/>
					<path class="st3" d="M412.6,329.2c-1.6-38.4,11-78.9,28-112c9.8-19.3,25.2-39.5,46.7-41.3c13.9-1.2,34.2,6.9,30.3,25
						c-6.7,30.7-40.9,57.8-61.4,77.3c-18,17-39.4,32-55.3,51.5c-7.7,9.3,5,23.4,12.7,13.9c24.6-30,57.9-52.2,84.2-80.4
						c18-19.5,51.7-56.6,33.5-86.8c-21.8-36.2-69.4-17.7-90.4,7.2c-30.1,35.8-48,97.4-45.9,145.7
						C395.3,341.8,413.2,341.8,412.6,329.2z"/>
					<path class="st3" d="M365.7,410.2c-1.7-43.8-40.2-134.7-92.2-117.6c-23.7,7.8-14.1,43-6.9,59.6c16.6,38.2,56,48.1,85.5,70.1
						c9.6,7.2,18.6-9.9,9-16.9c-18.2-13.5-38.8-21.9-57.1-35.3c-11.7-8.5-19.8-21.1-24.9-35.1c-2.3-6.4-7.1-23.2,2.8-24.5
						c37.1-4.7,64.6,68.1,65.8,99.6C348.3,422.7,366.2,422.9,365.7,410.2z"/>
					<path class="st3" d="M370.1,423.7c24.1-3.5,47.1-12.3,70.9-17.3c16.1-3.4,39.2-6.2,49.9,10.8c7.3,11.5,5.7,24.5-6.5,29.1
						c-31.6,12-93.4-4.2-119.9-26.1c-9.3-7.6-18.2,9.5-9,16.9c20.3,16.8,51,22.8,75.2,27.7c23.3,4.6,57.5,10,75.8-10.9
						c17.2-19.7,0.5-57-19.9-64.9c-38.5-14.7-78.5,9.6-116.4,15.1C358.8,405.7,358.7,425.3,370.1,423.7z"/>
					<path class="st3" d="M366.5,539.4c-25.7-25.4-51.1-54.3-86.3-62.4c-23.6-5.4-57.7,3.8-68.4,29.7c-9.7,23.8,8.9,45.1,26.4,55.8
						c32.7,20,68.4,5.3,100.9-6.8c10.9-4.1,6.2-23-4.7-18.9c-20.7,7.7-41.2,16.4-63.4,16.4c-15.3,0-51.7-17-42.3-40.1
						c10.2-25.1,50.5-18.4,67.6-9.7c22.1,11.2,39.7,32.3,57.6,49.9C362.3,561.8,375.1,547.9,366.5,539.4z"/>
					<path class="st3" d="M350.4,549.6c25.3,26.1,63.7,47.8,98.2,52.8c19.8,2.8,54.8-6.6,47-36.5c-6.7-25.7-42.4-37.8-62.6-44.1
						c-27.7-8.5-62.4-11.2-86,10.1c-8.9,8.1,3.8,21.9,12.7,13.9c28.5-25.8,91-5.1,115.1,20c5.7,5.9,4.6,9.9-1.7,14.2
						c-11.2,7.8-26.5,2.4-38.1-1.2c-25.2-7.8-52.8-23.4-71.9-43.2C354.6,527.1,342,541,350.4,549.6z"/>
					<path class="st3" d="M382.6,673.1c-24.2-8.5-52.6-15.1-78.1-11.1c-26.5,4.2-56.4,30.8-44.5,63c10.9,29.7,48.7,36.3,73.5,28.1
						c27.1-9.1,57.3-38.8,71.2-65.5c5.8-11.1-9.7-20.9-15.5-9.9c-9.8,18.8-27.5,34.5-43.5,46.5c-19.5,14.7-58.8,22-70.3-8.8
						c-5.5-15.1,13.6-28.8,24.5-32.6c10.4-3.6,22.3-2.2,32.8-1.2c15.1,1.5,30.4,5.4,44.8,10.4C388.8,696,393.5,676.9,382.6,673.1z"
						/>
					<path class="st3" d="M410.1,693.3c17.9-23.2,40.1-46.2,67.8-53.4c15.1-3.9,53.8,14.5,29.5,30.9c-27.7,18.8-74.7,27.6-107,24.1
						c-11.4-1.2-11.4,18.4,0,19.6c23.6,2.6,49.4-3.6,72.1-9.5c19.5-4.9,50.3-12.7,60.2-34.7c11.3-25.5-22.1-46.5-40.1-50.1
						c-36.9-7.6-73.6,31.2-95.1,59C389.9,688.9,402.5,702.9,410.1,693.3z"/>
					<path class="st3" d="M488.7,809.1c9-19.3,8.2-42.6,12.2-63.4c2.4-12.4,6.7-25,16.1-32.8c7.1-5.9,25.3-12,34.2-7.7
						c14,6.6-51.7,81.1-61.5,86.9c-10.2,5.9-1.1,23,9,16.9c21.1-12.4,38.2-35.7,52.5-56.3c8.9-13,29.3-44.9,13.7-60.5
						c-17.9-17.8-53.2-3.2-67,13.6c-21.5,26.3-11.2,64.2-24.8,93.5C467.9,810.4,483.4,820.3,488.7,809.1z"/>
					<path class="st3" d="M484.2,797.8c-34.7,0.7-71.3,9.5-103,25.1c-25.3,12.4-48.7,44.7-24.2,72.7
						c48.4,55.3,140.6-63.5,152.6-111.1c3.1-12.2-14.3-17.4-17.2-5.3C484.2,812,408.6,916.2,372.6,885
						c-45.2-39.3,92.5-67.2,111.6-67.4C495.8,817.3,495.8,797.7,484.2,797.8z"/>
					<path class="st3" d="M1355.1,880.9c62-73.5,137-133.1,170.2-230.1c34.9-101.7,27.7-237.6-31.2-326.6
						c-6.7-10.1-22.2-0.4-15.5,9.9c57.9,87.4,60,211.6,29.3,311.5c-28.5,93-107.3,152.3-165.5,221.5
						C1334.6,876.4,1347.3,890.3,1355.1,880.9z"/>
					<path class="st3" d="M1498.7,329.2c2-47-14.8-104.3-42.1-140.7c-22.2-29.6-65.1-47.7-92.9-14.2
						c-42.7,51.8,92.6,140.1,116.4,169.2c7.7,9.5,20.3-4.5,12.7-13.9c-35.7-43.5-90.2-69.2-115.1-123.6
						c-8.5-18.5,6.3-25.5,20.6-29.2c22.6-5.9,40.2,16.5,51.4,34.6c19.9,32.6,33,78.5,31.2,117.8
						C1480.2,341.8,1498.1,341.8,1498.7,329.2z"/>
					<path class="st3" d="M1545.7,410.2c1.5-37.8,26-88.8,60.6-99.2c13.1-3.9,11.4,10.4,9.4,19.5c-3,13-10.6,24.7-19.4,33.8
						c-17.9,18.5-43.9,26.2-64.1,41.1c-9.6,7-0.5,24.1,9,16.9c28.8-21.5,63.8-30.9,83-65.1c10.1-18,19.2-50.9-2.3-63.6
						c-21.5-12.6-50.9,11.8-62.6,29.9c-15.7,24.2-30.4,56.5-31.6,86.8C1527.3,422.9,1545.2,422.7,1545.7,410.2z"/>
					<path class="st3" d="M1523.3,404c-37.4-5.4-73.3-26.3-111.7-16.9c-23.6,5.8-40.6,41.6-26.1,64.7c14.7,23.1,51,17,72.1,13.8
						c25.6-3.9,59.1-11.1,80.2-28.6c9.2-7.6,0.3-24.6-9-16.9c-27.9,23-82.9,34.1-116.4,27c-11.8-2.4-15.9-9.6-12.9-22.2
						c5.1-21.8,26.4-21.5,42.7-20.1c27.6,2.3,53.7,14.9,81.2,18.8C1534.8,425.3,1534.6,405.7,1523.3,404z"/>
					<path class="st3" d="M1539.7,553.3c29.9-29.5,80.1-85.5,121.9-44.9c19.8,19.3-18.2,39.2-30,43.1c-23,7.6-50.9-6.8-72.4-14.7
						c-10.9-4.1-15.6,14.9-4.7,18.9c30.8,11.5,64.1,25.5,95.7,9.5c20.2-10.3,39-29.7,32.4-56.1c-7.1-28.5-44.9-35.1-66.9-32.4
						c-35.7,4.5-63.5,37.8-88.7,62.7C1518.5,547.9,1531.1,561.8,1539.7,553.3z"/>
					<path class="st3" d="M1530.4,535.7c-18.3,18.9-42.9,31.9-66.3,41.2c-12.2,4.9-26.1,9.1-39,5.7c-9.6-2.6-12.7-9.1-6.3-16.6
						c22.1-26.8,87.9-44.6,115.1-20c8.9,8,21.5-5.8,12.7-13.9c-22.7-20.7-54.2-17.8-81.4-11.4c-21.1,5.1-60.3,18.6-67.2,45.3
						c-7,27,22.7,38.5,42,37.2c35.8-2.6,77.4-27,103.2-53.5C1551.4,541,1538.8,527.1,1530.4,535.7z"/>
					<path class="st3" d="M1515.6,692c14.5-5.1,29.7-8.5,44.8-10.4c18.8-2.4,63.7,0.4,57.3,33.6c-2.7,14.3-21.8,20.1-32.4,21.6
						c-14.3,1.9-26.2-4.7-37.8-12.7c-16-11.1-33.9-28.2-43.5-46.5c-5.7-10.9-21.1-1.1-15.5,9.9c13.6,26.2,41.2,52.3,66.6,63.5
						c25.3,11.2,66.5,5.5,78.2-26.1c11-30-14.8-56.2-39.8-62.3c-26.2-6.4-57.7,1.6-82.8,10.4C1499.9,676.9,1504.6,696,1515.6,692z"
						/>
					<path class="st3" d="M1496.1,679.3c-22.6-29.2-55.3-62.2-92.7-59.5c-19,1.4-50.9,23-43.3,48.1c6.9,22.8,39.2,30.9,57.3,36.1
						c23.6,6.6,51.3,13.1,75.8,10.4c11.4-1.2,11.4-20.9,0-19.6c-32.8,3.6-75.4-6.2-104.4-22.6c-24.9-13.9,1.7-31.9,19.5-33.1
						c29.2-2.2,58,31.8,75.2,54.1C1490.9,702.9,1503.5,688.9,1496.1,679.3z"/>
					<path class="st3" d="M1420.4,799.1c-13.3-28.8-4.6-63.9-23.4-91.5c-11.8-17.4-49.8-34.3-67.2-16.9
						c-16.1,16.1,0.9,44.1,10.4,58.6c14,21.9,32.7,46.6,54.5,59.5c10.2,6.1,19.2-10.9,9-16.9c-15.1-8.9-27.3-24.6-38.4-38.6
						c-6.1-7.7-29.3-35.8-23.8-47.8c2.4-5.3,22.6,1.8,26,2.7c14.3,4.1,20.5,19.3,24.1,33.4c5.7,22.2,3.5,46.8,13.2,67.6
						C1410.1,820.3,1425.5,810.4,1420.4,799.1z"/>
					<path class="st3" d="M1409.2,817.6c23.3,0.4,151.5,22,111.6,67.4c-31.5,35.8-112.5-77-119.8-105.7c-3.1-12.2-20.3-7-17.2,5.3
						c12,47.6,104.2,166.3,152.5,111.1c25-28.5,0.4-59.3-24.2-72.7c-30.5-16.6-68.9-24.5-103-25
						C1397.6,797.7,1397.6,817.3,1409.2,817.6z"/>
				</g>
			</g>
		</g>
	</g>
</g>
</svg>
